# xmcd
#
# Track frame offsets: 
#        150
#        23468
#        42464
#        56490
#        77995
#        94914
#        111388
#        126534
#        154047
#        172351
#        190855
#        212543
#
# Disc length: 3140 seconds
#
# Revision: 0
# Processed by: cddbd v1.5.2PL0 Copyright (c) Steve Scherf et al.
# Submitted via: ExactAudioCopy v0.99pb5
#
DISCID=a90c420c
DTITLE=Nik Kershaw - Live In Germany 1984
DYEAR=2011
DGENRE=Synthpop
TTITLE0=Cloak and Dagger
TTITLE1=Shame On You
TTITLE2=Progress
TTITLE3=I Won't Let The Sun Go Down On Me
TTITLE4=Dark Glasses
TTITLE5=Dancing Girls
TTITLE6=Monkey Business
TTITLE7=Bogart
TTITLE8=Drum Talk
TTITLE9=Gone To Pieces
TTITLE10=Wouldn't It Be Good
TTITLE11=Human Racing
EXTD=
EXTT0=
EXTT1=
EXTT2=
EXTT3=
EXTT4=
EXTT5=
EXTT6=
EXTT7=
EXTT8=
EXTT9=
EXTT10=
EXTT11=
PLAYORDER=
